# xmcd
#
# Track frame offsets:
#	150
#	5376
#	22406
#	72080
#	145344
#	154345
#	198170
#
# Disc length: 3556 seconds
#
# Revision: 0
# Processed by: cddbd v1.4PL0 Copyright (c) Steve Scherf et al.
# Submitted via: dBpowerAMP V4.0
#
DISCID=5d0de207
DTITLE=Grateful Dead - Barton Hall - May 8th 1977 - CD 2
DYEAR=1900
DGENRE=Blues
TTITLE0=Tune Up
TTITLE1=Mama Tried
TTITLE2=Row Jimmy
TTITLE3=Dancin' In The Streets
TTITLE4="Take A Step Back"
TTITLE5=Scarlet Begonias
TTITLE6=Fire On The Mountain
EXTD=
EXTT0=
EXTT1=
EXTT2=
EXTT3=
EXTT4=
EXTT5=
EXTT6=
PLAYORDER=
